<svg xmlns="http://www.w3.org/2000/svg" width="5.771" height="9.541" viewBox="68 13.491 5.771 9.541"><path d="M73.478 17.554a1 1 0 0 1 0 1.414.996.996 0 0 1-.002.002l-1.883 1.883-1.886 1.886a.995.995 0 0 1-.51.273 1 1 0 0 1-.852-.225 1.015 1.015 0 0 1-.052-.048 1 1 0 0 1-.048-1.363 1.014 1.014 0 0 1 .048-.052l1.885-1.885 1.179-1.178-3.064-3.064a.995.995 0 0 1-.273-.51.999.999 0 0 1 .225-.852 1.014 1.014 0 0 1 .048-.052.996.996 0 0 1 .513-.273 1 1 0 0 1 .901.273l3.77 3.77Z" fill="rgba(255, 255, 255, 0.5019607843137255)" fill-rule="evenodd" data-name="arrow"/></svg>