<svg xmlns="http://www.w3.org/2000/svg" width="29.333" height="26.662" viewBox="248.667 30.552 29.333 26.662"><path d="M270.344 40.904h4.323A3.333 3.333 0 0 1 278 44.238v6.05a3.333 3.333 0 0 1-.05.58l.05-.012v5.252a1.115 1.115 0 0 1 0 .003c0 .61-.504 1.103-1.125 1.103a1.114 1.114 0 0 1-.937-.495l-3.455-3.098h-10.285a3.333 3.333 0 0 1-3.333-3.333v-4.364h2.552v4c0 .736.597 1.333 1.333 1.333h10.903l-.154.152 2.25 2.212v-3.459a1.333 1.333 0 0 0 .022-.238v-5.176c0-.737-.597-1.334-1.333-1.334h-4.094v-2.51ZM252 30.552h12.469a3.333 3.333 0 0 1 3.333 3.333v6.06a3.333 3.333 0 0 1-3.333 3.334h-10.295l-3.45 3.093a1.117 1.117 0 0 1-.932.49 1.117 1.117 0 0 1-1.125-1.105V40.504l.049.013a3.333 3.333 0 0 1-.05-.571v-6.06A3.333 3.333 0 0 1 252 30.551Zm-1.083 9.257v3.46l2.25-2.212-.155-.153h10.905c.736 0 1.333-.597 1.333-1.333v-5.176c0-.736-.597-1.333-1.333-1.333h-11.688c-.736 0-1.333.597-1.333 1.333v5.176a1.333 1.333 0 0 0 .021.238Z" fill="rgba(204, 204, 204, 1)" fill-rule="evenodd" data-name="chat"/></svg>