<svg xmlns="http://www.w3.org/2000/svg" width="30" height="29.995" viewBox="109.667 28.885 30 29.995"><path d="M139.667 43.883a15 15 0 0 0-15-14.998 14.999 14.999 0 0 0-15 14.998c0 8.283 6.715 14.998 15 14.998a14.999 14.999 0 0 0 15-14.998Zm-2.5 0a12.499 12.499 0 0 0-12.5-12.498 12.499 12.499 0 0 0-12.5 12.498 12.5 12.5 0 0 0 12.5 12.498c6.903 0 12.5-5.596 12.5-12.498Zm-10.71 2.268a.428.428 0 0 0 .072-.125.52.52 0 0 0 .17-.113.528.528 0 0 0 .025-.027.52.52 0 0 0 .088-.143.428.428 0 0 0 .125-.071.503.503 0 0 0 .153-.22c.092-.248 1.901-5.227 2.056-5.652a.44.44 0 0 0 .018-.068c.046-.244-.156-.412-.409-.322a26.61 26.61 0 0 0-.111.04c-.75.27-4.622 1.675-5.428 1.972a16.897 16.897 0 0 0-.127.047.499.499 0 0 0-.252.217.417.417 0 0 0-.028.056.52.52 0 0 0-.169.113.53.53 0 0 0-.027.03.52.52 0 0 0-.086.14.417.417 0 0 0-.056.027.498.498 0 0 0-.217.252c-.128.335-1.73 4.747-2.02 5.554a28.924 28.924 0 0 0-.04.11.444.444 0 0 0-.017.062c-.049.246.15.423.408.33a1758.43 1758.43 0 0 1 .015-.006l5.535-2.012a70.406 70.406 0 0 0 .103-.037.503.503 0 0 0 .22-.154Z" fill="rgba(233, 72, 109, 1)" fill-rule="evenodd" data-name="explore"/></svg>