<svg xmlns="http://www.w3.org/2000/svg" width="25.332" height="24.176" viewBox="1.336 2.213 25.332 24.176"><path d="M21.99 18.705a2.28 2.28 0 0 0 .103-.003c.6-.03 3.671-.332 4.45-3.419a5.615 5.615 0 0 0 .112-.575 6.507 6.507 0 0 0 .012-.302c.066-4.114-3.965-4.937-3.965-4.937a1.376 1.376 0 0 0 0-.017c.022-.357.278-5.997-4.785-7.086a7.718 7.718 0 0 0-.67-.113 7.739 7.739 0 0 0-.474-.034c-4.51-.182-6.032 3.871-6.154 4.218a1.292 1.292 0 0 0-.008.023s-1.465-1.409-3.474-.345A4.123 4.123 0 0 0 7 6.19a3.41 3.41 0 0 0-.463.341c-1.34 1.179-1.069 2.91-1.069 2.91a2.243 2.243 0 0 0-.094.021c-.615.15-4.038 1.16-4.038 4.994a5.142 5.142 0 0 0 .13 1.066c.74 3.147 4.358 3.182 4.358 3.182H21.99Zm-15.455 2.98a4.424 4.424 0 0 0 .23-.4c.118-.235.227-.521.328-.86a9.832 9.832 0 0 0 .15-.577c.093.394.194.736.304 1.025a4.272 4.272 0 0 0 .178.411c.344.682.874 1.227.968 1.32a1.438 1.438 0 0 0 .014.015 3.784 3.784 0 0 1 .27.335c.3.425.452.85.452 1.274a2.13 2.13 0 0 1-.12.717 2.13 2.13 0 0 1-.524.807 2.587 2.587 0 0 1-.01.01 2.113 2.113 0 0 1-1.532.627 2.11 2.11 0 0 1-1.538-.637 2.569 2.569 0 0 1-.024-.025 2.062 2.062 0 0 1-.619-1.5c0-.42.148-.841.444-1.262a3.766 3.766 0 0 1 .277-.346c.016-.016.406-.398.752-.935Zm7.037 0a4.424 4.424 0 0 0 .23-.4 4.077 4.077 0 0 0 .16-.365c.059-.15.114-.315.168-.496a9.85 9.85 0 0 0 .15-.576c.093.394.194.736.303 1.025a4.27 4.27 0 0 0 .18.411 4.22 4.22 0 0 0 .144.262c.37.62.837 1.073.837 1.073a3.783 3.783 0 0 1 .27.335c.3.425.451.85.451 1.274 0 .592-.214 1.1-.643 1.524a2.587 2.587 0 0 1-.01.01 2.113 2.113 0 0 1-1.532.627 2.21 2.21 0 0 1-.635-.09 2.146 2.146 0 0 1-.903-.547 2.066 2.066 0 0 1-.643-1.524c0-.536.24-1.073.721-1.61.016-.015.406-.397.752-.934Zm7.037 0a4.426 4.426 0 0 0 .23-.4 4.082 4.082 0 0 0 .16-.365 6.41 6.41 0 0 0 .168-.496 9.842 9.842 0 0 0 .15-.576 10.167 10.167 0 0 0 .145.552c.051.17.104.329.158.473a4.272 4.272 0 0 0 .179.411 4.221 4.221 0 0 0 .144.262c.37.62.838 1.073.838 1.073a3.781 3.781 0 0 1 .27.335c.135.192.24.384.315.575a1.915 1.915 0 0 1 .136.699 2.13 2.13 0 0 1-.119.717 2.131 2.131 0 0 1-.524.807 2.607 2.607 0 0 1-.01.01 2.113 2.113 0 0 1-1.532.627 2.21 2.21 0 0 1-.635-.09 2.146 2.146 0 0 1-.903-.547 2.066 2.066 0 0 1-.643-1.524 1.827 1.827 0 0 1 .036-.363c.085-.416.313-.831.685-1.246a2.1 2.1 0 0 0 .03-.03c.097-.099.426-.445.722-.905Z" fill="rgba(204, 204, 204, 1)" fill-rule="evenodd" data-name="icon"/></svg>