<svg xmlns="http://www.w3.org/2000/svg" width="14.667" height="12.998" viewBox="24.666 14.512 14.667 12.998"><path d="m30.13 15.103 1.726 1.773h.288l1.725-1.773.08.02a3.5 3.5 0 0 1 1.93-.61c1.908 0 3.454 1.587 3.454 3.545a3.501 3.501 0 0 1-.632 2.051l.057.016-6.614 7.385h-.288l-6.614-7.385.035-.048a3.501 3.501 0 0 1-.61-2.02 3.501 3.501 0 0 1 3.454-3.545 3.501 3.501 0 0 1 1.937.616l.073-.025Zm-.543 2.017a1.748 1.748 0 0 0-.677-.633l-.217-.202-.065.085a1.748 1.748 0 0 0-.507-.082 1.748 1.748 0 0 0-1.724 1.77 1.748 1.748 0 0 0 .835 1.513l4.912 5.576 2.588-3.102 2.098-2.514a1.748 1.748 0 0 0 .773-1.473c0-.978-.772-1.77-1.724-1.77a1.748 1.748 0 0 0-.267.024l-.017-.027-.045.038a1.748 1.748 0 0 0-1.285 1.1l-.396.339-1.725 1.477h-.288l-1.581-1.477-.688-.642Z" fill="rgba(170, 170, 170, 1)" fill-rule="evenodd" data-name="love"/></svg>