<svg xmlns="http://www.w3.org/2000/svg" width="3" height="15.664" viewBox="127 5.565 3 15.664"><path d="M128.333 5.565h.334c.736 0 1.333.597 1.333 1.333v.333c0 .736-.597 1.333-1.333 1.333h-.334A1.333 1.333 0 0 1 127 7.231v-.333c0-.736.597-1.333 1.333-1.333Zm0 6.332h.334c.736 0 1.333.597 1.333 1.333v.333c0 .737-.597 1.334-1.333 1.334h-.334A1.333 1.333 0 0 1 127 13.563v-.333a1.333 1.333 0 0 1 1.333-1.333Zm0 6.332h.334c.736 0 1.333.597 1.333 1.334v.333c0 .736-.597 1.333-1.333 1.333h-.334A1.333 1.333 0 0 1 127 19.896v-.333a1.333 1.333 0 0 1 1.333-1.334Z" fill="rgba(170, 170, 170, 1)" fill-rule="evenodd" data-name="more"/></svg>