<svg xmlns="http://www.w3.org/2000/svg" width="17.335" height="17.332" viewBox="290.332 67.988 17.335 17.332"><path d="M306.583 83.154a1.083 1.083 0 0 0 1.084-1.084c0-.174-.041-.338-.115-.484l-2.052-4.104v-2.994a6.5 6.5 0 0 0-6.5-6.5 6.5 6.5 0 0 0-6.501 6.5v2.994l-2.053 4.104a1.083 1.083 0 0 0 .97 1.568h5.417c0 1.196.97 2.166 2.166 2.166a2.167 2.167 0 0 0 2.167-2.166h5.417ZM299 69.916c2.48 0 4.49 2.012 4.49 4.494a4.492 4.492 0 0 1-.012.318h.012v3.531h.004l1.605 2.889h-12.198l1.605-2.889h.004v-3.531h.012a4.492 4.492 0 0 1-.012-.318 4.492 4.492 0 0 1 4.49-4.494Z" fill="rgba(170, 170, 170, 1)" fill-rule="evenodd" data-name="activity"/></svg>