<svg xmlns="http://www.w3.org/2000/svg" width="12.667" height="16.328" viewBox="1.663 1.05 12.667 16.328"><path d="M7.997 1.05a7.827 7.827 0 0 0-1.117.08c-2.608.377-5.217 2.128-5.217 6.147a6.485 6.485 0 0 0 .198 1.54c.988 4.033 5.346 8.14 5.554 8.335a.85.85 0 0 0 .582.226.85.85 0 0 0 .581-.226c.23-.215 5.53-5.21 5.745-9.602a5.564 5.564 0 0 0 .007-.273 7.46 7.46 0 0 0-.3-2.176c-.76-2.498-2.838-3.67-4.917-3.971a7.827 7.827 0 0 0-1.116-.08Zm-4.68 6.227a4.757 4.757 0 0 0 .066.77c.47 2.87 3.358 6.117 4.613 7.414a26.947 26.947 0 0 0 .03-.03c1.183-1.228 3.733-4.106 4.455-6.793a5.261 5.261 0 0 0 .195-1.36 6.81 6.81 0 0 0-.06-.926C12.2 3.318 9.73 2.729 8.45 2.63a5.957 5.957 0 0 0-.453-.017c-1.098 0-4.68.336-4.68 4.664Zm6.164-1.41A2.013 2.013 0 0 0 8 5.228a2.094 2.094 0 0 0-.153.006 1.931 1.931 0 0 0-1.826 1.89C6.02 8.171 6.907 9.02 8 9.02a2.095 2.095 0 0 0 .152-.006 1.931 1.931 0 0 0 1.827-1.89 1.844 1.844 0 0 0-.498-1.257Z" fill="rgba(170, 170, 170, 1)" fill-rule="evenodd" data-name="pin"/></svg>