<svg xmlns="http://www.w3.org/2000/svg" width="26.667" height="22.663" viewBox="175.333 32.552 26.667 22.663"><path d="M176.5 32.552h24.333A1.167 1.167 0 0 1 202 33.718v.292a1.167 1.167 0 0 1-1.167 1.166H176.5a1.167 1.167 0 0 1-1.167-1.166v-.292a1.167 1.167 0 0 1 1.167-1.166Zm17.833 8.207H199c.92 0 1.667.746 1.667 1.666v7.27a2.772 2.772 0 0 1 0 .01v3.089a2.65 2.65 0 0 1 0 .035v1.292a1.46 1.46 0 0 1 0 .016 1.404 1.404 0 0 1-.108.548c-.135.317-.384.53-.668.53a.668.668 0 0 1-.515-.271 1.168 1.168 0 0 1-.07-.1 1.193 1.193 0 0 1-.14.01l-2.5-2.86-.25.285-2.25 2.575a1.193 1.193 0 0 1-.12-.008.975.975 0 0 1-.214.236.625.625 0 0 1-.379.133.685.685 0 0 1-.532-.284 1.285 1.285 0 0 1-.254-.794 1.385 1.385 0 0 1 0-.023v-1.28a2.65 2.65 0 0 1 0-.04v-3.09a2.772 2.772 0 0 1 0-.02v-7.259c0-.92.746-1.666 1.666-1.666ZM176.5 50.944h12.333A1.167 1.167 0 0 1 190 52.111v.291a1.167 1.167 0 0 1-1.167 1.167H176.5a1.167 1.167 0 0 1-1.167-1.167v-.29a1.167 1.167 0 0 1 1.167-1.168Zm0-9.196h12.333A1.167 1.167 0 0 1 190 42.915v.29a1.167 1.167 0 0 1-1.167 1.168H176.5a1.167 1.167 0 0 1-1.167-1.167v-.291a1.167 1.167 0 0 1 1.167-1.167Z" fill="rgba(204, 204, 204, 1)" fill-rule="evenodd" data-name="saved"/></svg>