<svg xmlns="http://www.w3.org/2000/svg" width="25.334" height="25.33" viewBox="1.665 1.846 25.334 25.33"><path d="M7.999 14.511a6.333 6.333 0 0 0 6.334 6.333 6.333 6.333 0 0 0 6.333-6.333 6.333 6.333 0 0 0-6.333-6.332 6.333 6.333 0 0 0-6.334 6.332Zm6.334-3.166a3.167 3.167 0 1 0 3.166 3.166 3.167 3.167 0 0 0-3.166-3.166Zm7.837 8.763 1.12 1.12c.592.591.617 1.535.076 2.157a1.604 1.604 0 0 1-.076.082 1.576 1.576 0 0 1-.813.434 1.583 1.583 0 0 1-1.345-.358 1.606 1.606 0 0 1-.082-.076l-1.12-1.12a1.584 1.584 0 0 1-.082-2.15 1.607 1.607 0 0 1 .083-.09 1.577 1.577 0 0 1 .817-.433c.466-.09.965.03 1.344.361a1.605 1.605 0 0 1 .078.073ZM6.416 14.51c0 .875-.71 1.583-1.584 1.583H3.25a1.583 1.583 0 1 1 0-3.166h1.583c.875 0 1.584.709 1.584 1.583Zm.896 5.163a1.576 1.576 0 0 0-.817.434l-1.12 1.12a1.583 1.583 0 0 0 0 2.239 1.607 1.607 0 0 0 .082.076c.623.54 1.566.515 2.158-.076l1.12-1.12c.389-.388.533-.93.432-1.432a1.578 1.578 0 0 0-.433-.807 1.584 1.584 0 0 0-1.422-.434Zm-.817-10.76-1.12-1.119a1.576 1.576 0 0 1-.432-.808 1.583 1.583 0 0 1 .356-1.35 1.607 1.607 0 0 1 .077-.081 1.577 1.577 0 0 1 .807-.433c.468-.094.97.025 1.35.356a1.606 1.606 0 0 1 .082.077l1.12 1.12c.589.589.617 1.526.082 2.149a1.609 1.609 0 0 1-.083.09 1.576 1.576 0 0 1-.812.433c-.5.098-1.039-.046-1.427-.434Zm18.922 7.18h-1.584a1.583 1.583 0 1 1 0-3.166h1.584c.874 0 1.583.709 1.583 1.583a1.583 1.583 0 0 1-1.583 1.583Zm-4.062-6.746a1.576 1.576 0 0 0 .815-.434l1.12-1.119a1.609 1.609 0 0 0 .082-.09c.395-.459.483-1.09.265-1.625a1.57 1.57 0 0 0-.026-.062 1.587 1.587 0 0 0-.321-.462 1.631 1.631 0 0 0-.022-.022 1.574 1.574 0 0 0-.502-.326 1.585 1.585 0 0 0-.596-.116c-.405 0-.81.155-1.12.464l-1.12 1.12a1.583 1.583 0 0 0 0 2.238 1.606 1.606 0 0 0 .083.076c.378.33.877.45 1.342.358Zm-7.022 13.079c.874 0 1.583.708 1.583 1.583v1.584c0 .874-.709 1.582-1.583 1.582a1.583 1.583 0 0 1-1.584-1.582V24.01c0-.875.71-1.583 1.584-1.583Zm0-15.831a1.583 1.583 0 0 1-1.584-1.584V3.429a1.583 1.583 0 1 1 3.167 0v1.583a1.583 1.583 0 0 1-1.583 1.584Z" fill="rgba(204, 204, 204, 1)" fill-rule="evenodd" data-name="sun"/></svg>