<svg xmlns="http://www.w3.org/2000/svg" width="41.337" height="29.328" viewBox="37.329 29.219 41.337 29.328"><path d="M72.114 38.312A14.616 14.616 0 0 0 58.63 29.22a14.616 14.616 0 0 0-14.567 14.664 14.616 14.616 0 0 0 1.785 7.048 19.041 19.041 0 0 1-.035.001c-.307.01-.61.009-.905-.003a13.77 13.77 0 0 1-1.418-.125c-3.562-.514-4.212-2.332-4.157-3.45a5.54 5.54 0 0 1 .042-.471c.123-.908.545-1.815 2.149-3.655a42.94 42.94 0 0 1 .75-.835.988.988 0 0 0 .464-.514 7.24 7.24 0 0 0 .16-.194c.983-1.245.196-1.274-.653-1.073a5.79 5.79 0 0 0-.022.005.994.994 0 0 0-.365-.087 1.02 1.02 0 0 0-.048-.001.988.988 0 0 0-.877.525 4.542 4.542 0 0 0-.024.026c-.392.404-3.477 3.68-3.578 6.619a3.798 3.798 0 0 0-.002.13c0 3.06 3.733 4.894 7.267 5.07a17.2 17.2 0 0 0 2.25-.061 32.834 32.834 0 0 0 .228-.02 14.616 14.616 0 0 0 11.556 5.73 14.616 14.616 0 0 0 14.223-11.46l-2.965 1.414a12.19 12.19 0 0 1-11.258 7.609 12.19 12.19 0 0 1-8.7-3.69 41.242 41.242 0 0 0 3.4-.76c1.489-.401 2.762-.848 3.523-1.26a8.29 8.29 0 0 0 .246-.139 6.025 6.025 0 0 0 .11-.066 1.103 1.103 0 0 0 1.026-1.052 1.132 1.132 0 0 0 .002-.052 1.107 1.107 0 0 0-1.05-1.108 1.116 1.116 0 0 0-.053-.001 1.103 1.103 0 0 0-.853.407 9.426 9.426 0 0 1-.068.028 43.427 43.427 0 0 1-5.192 1.692 30.417 30.417 0 0 1-2.517.539 12.19 12.19 0 0 1-2.025-6.766A12.19 12.19 0 0 1 58.63 31.656a12.19 12.19 0 0 1 11.106 7.251 23.38 23.38 0 0 1 .162-.053c.603-.196 1.332-.404 1.976-.508a5.289 5.289 0 0 1 .24-.034Zm2.006 1.805a96.892 96.892 0 0 0-2.928 1.047 5.752 5.752 0 0 1-.373.086c-2.158.421-3.929-.566-4.608-1.2a2.715 2.715 0 0 0-.892-.49c-.2-.069-.401-.12-.587-.157a5.212 5.212 0 0 0-.236-.042 5.36 5.36 0 0 0-.21-.028 5.086 5.086 0 0 0-.161-.016 3.654 3.654 0 0 0-.147-.01 3.192 3.192 0 0 0-.035-.002 2.492 2.492 0 0 0-.002 0 2.725 2.725 0 0 0-.064-.003.351.351 0 0 0-.001 0 507.14 507.14 0 0 1-.209.027 355.31 355.31 0 0 1-1.693.21c-.347-.02-.675.268-.73.646a.744.744 0 0 0-.008.107c0 .047.005.093.014.136a.559.559 0 0 0 .528.466.603.603 0 0 0 .022 0 .646.646 0 0 0 .032 0 107.973 107.973 0 0 0 1.466 1.569 88.957 88.957 0 0 0 1.23 1.265 171.786 171.786 0 0 1-1.54.571 6.534 6.534 0 0 1-.218.026 4.957 4.957 0 0 1-.854.016 3.508 3.508 0 0 1-.649-.107c-1.171-.314-2.378-.693-3.241-.378a1.474 1.474 0 0 0-.546.346.563.563 0 0 0-.04.044.48.48 0 0 0-.075.042.58.58 0 0 0-.25.426.546.546 0 0 0-.002.02.564.564 0 0 0-.001.032.539.539 0 0 0 .002.05.543.543 0 0 0 .002.016.486.486 0 0 0 .017.08.489.489 0 0 0 .005.017.453.453 0 0 0 .08.145.402.402 0 0 0 .107.09.4.4 0 0 0 .188.055 2.35 2.35 0 0 0 .093.152c.137.21.314.43.51.647.626.698 1.447 1.388 1.922 1.932a.704.704 0 0 0 .38.215 2.2 2.2 0 0 0 .487.186c.275.074.586.114.924.114a4.37 4.37 0 0 0 .075 0 4.635 4.635 0 0 0 1.322-.214 3.403 3.403 0 0 0 .744-.325 133.734 133.734 0 0 0 1.45-.458 177.64 177.64 0 0 0 7.967-2.789 215.288 215.288 0 0 0 1.818-.692 270.158 270.158 0 0 0 .397-.142c.581-.21 1.163-.421 1.575-.579a19.123 19.123 0 0 0 .29-.112 4.45 4.45 0 0 0 .247-.102c.391-.175.69-.39.845-.687a.938.938 0 0 0 .095-.288.924.924 0 0 0 .002-.014.993.993 0 0 0 .01-.139 1.078 1.078 0 0 0 0-.008 1.102 1.102 0 0 0-.005-.085 1.28 1.28 0 0 0-.01-.088 1.366 1.366 0 0 0-.045-.186 1.63 1.63 0 0 0-.025-.073 1.869 1.869 0 0 0-.052-.126 2.022 2.022 0 0 0-.017-.037c-.06-.125-.14-.26-.242-.4-.47-.61-1.407-.86-2.19-.944a5.345 5.345 0 0 0-.295-.02 4.478 4.478 0 0 0-.036-.002 5.446 5.446 0 0 0-.243-.005 6.026 6.026 0 0 0-.038 0c-.165.001-.318.01-.45.02a6.524 6.524 0 0 0-.063.005 6.092 6.092 0 0 0-.296.034 4.89 4.89 0 0 0-.008 0 109.096 109.096 0 0 0-.029-.057 52.025 52.025 0 0 0-.502.165Z" fill="rgba(204, 204, 204, 1)" fill-rule="evenodd" data-name="travels"/></svg>